<?xml version="1.0" encoding="UTF-8"?>
<!DOCTYPE svg PUBLIC "-//W3C//DTD SVG 1.1//EN" "http://www.w3.org/Graphics/SVG/1.1/DTD/svg11.dtd">
<svg xmlns="http://www.w3.org/2000/svg" version="1.1" width="583px" height="471px" style="shape-rendering:geometricPrecision; text-rendering:geometricPrecision; image-rendering:optimizeQuality; fill-rule:evenodd; clip-rule:evenodd" xmlns:xlink="http://www.w3.org/1999/xlink">
<g><path style="opacity:1" fill="#fefefe" d="M -0.5,-0.5 C 65.5,-0.5 131.5,-0.5 197.5,-0.5C 185.032,7.06389 183.366,16.5639 192.5,28C 204.183,34.7427 212.683,31.9094 218,19.5C 219.5,10.1659 216,3.49921 207.5,-0.5C 332.5,-0.5 457.5,-0.5 582.5,-0.5C 582.5,93.5 582.5,187.5 582.5,281.5C 568.812,227.966 534.479,205.466 479.5,214C 451.026,222.474 432.526,240.974 424,269.5C 414.689,303.295 419.356,334.961 438,364.5C 451.239,381.048 468.406,390.881 489.5,394C 541.471,396.512 572.471,372.345 582.5,321.5C 582.5,371.167 582.5,420.833 582.5,470.5C 388.167,470.5 193.833,470.5 -0.5,470.5C -0.5,419.833 -0.5,369.167 -0.5,318.5C 0.652216,336.793 6.15222,353.793 16,369.5C 40.836,394.537 70.0026,401.037 103.5,389C 114.674,384.492 124.174,377.659 132,368.5C 132.589,381.943 131.589,395.277 129,408.5C 124.061,427.231 111.894,437.397 92.5,439C 82.7877,439.824 73.121,439.491 63.5,438C 51.5688,433.913 44.5688,425.746 42.5,413.5C 32.5541,411.525 22.2208,410.858 11.5,411.5C 11.2155,413.415 11.5489,415.081 12.5,416.5C 15.5548,437.724 27.2214,451.891 47.5,459C 78.1992,469.157 107.199,465.824 134.5,449C 150.695,433.767 159.195,414.934 160,392.5C 160.5,333.501 160.667,274.501 160.5,215.5C 151.167,215.5 141.833,215.5 132.5,215.5C 132.666,222.508 132.5,229.508 132,236.5C 120.561,221.693 105.394,213.526 86.5,212C 46.0308,208.978 18.8641,226.478 5,264.5C 2.55719,272.837 0.72386,281.17 -0.5,289.5C -0.5,192.833 -0.5,96.1667 -0.5,-0.5 Z"/></g>
<g><path style="opacity:1" fill="#b2cdf2" d="M 197.5,-0.5 C 200.833,-0.5 204.167,-0.5 207.5,-0.5C 216,3.49921 219.5,10.1659 218,19.5C 212.683,31.9094 204.183,34.7427 192.5,28C 183.366,16.5639 185.032,7.06389 197.5,-0.5 Z"/></g>
<g><path style="opacity:1" fill="#c5d9f5" d="M 161.5,9.5 C 175.854,9.35041 182.354,16.3504 181,30.5C 176.929,40.0904 169.763,43.5904 159.5,41C 148.275,33.7312 146.608,24.7312 154.5,14C 156.898,12.4758 159.231,10.9758 161.5,9.5 Z"/></g>
<g><path style="opacity:1" fill="#9fc2ef" d="M 237.5,9.5 C 254.239,10.3298 260.072,18.6632 255,34.5C 247.497,42.5756 239.164,43.5756 230,37.5C 222.037,25.1795 224.537,15.8462 237.5,9.5 Z"/></g>
<g><path style="opacity:1" fill="#8cb6ec" d="M 263.5,37.5 C 280.675,36.8559 287.175,44.8559 283,61.5C 273.667,72.1667 264.333,72.1667 255,61.5C 250.847,50.8405 253.68,42.8405 263.5,37.5 Z"/></g>
<g><path style="opacity:1" fill="#d8e6f9" d="M 133.5,37.5 C 149.697,37.8566 155.864,45.8566 152,61.5C 145.711,69.6854 137.878,71.5187 128.5,67C 117.973,55.0358 119.64,45.2024 133.5,37.5 Z"/></g>
<g><path style="opacity:1" fill="#e2ecfa" d="M 121.5,75.5 C 135.967,73.9398 143.133,80.2732 143,94.5C 140.053,104.064 133.553,108.23 123.5,107C 112.211,102.023 109.044,93.8562 114,82.5C 116.396,79.9334 118.896,77.6 121.5,75.5 Z"/></g>
<g><path style="opacity:1" fill="#79a9e8" d="M 274.5,75.5 C 290.699,75.1864 297.199,82.8531 294,98.5C 285.995,109.074 276.995,110.074 267,101.5C 260.503,90.1767 263.003,81.5101 274.5,75.5 Z"/></g>
<g><path style="opacity:1" fill="#ebf2fb" d="M 133.5,113.5 C 150.006,113.508 156.173,121.508 152,137.5C 144.286,146.913 135.619,147.913 126,140.5C 119.315,128.71 121.815,119.71 133.5,113.5 Z"/></g>
<g><path style="opacity:1" fill="#669de5" d="M 263.5,113.5 C 281.797,112.955 287.963,121.288 282,138.5C 272.66,148.126 263.66,147.792 255,137.5C 250.847,126.841 253.68,118.841 263.5,113.5 Z"/></g>
<g><path style="opacity:1" fill="#f5f9fd" d="M 160.5,141.5 C 174.318,140.489 181.151,146.822 181,160.5C 176.166,172.164 168,175.331 156.5,170C 149.267,164.033 147.767,156.867 152,148.5C 154.416,145.577 157.25,143.243 160.5,141.5 Z"/></g>
<g><path style="opacity:1" fill="#5390e2" d="M 235.5,141.5 C 245.718,139.395 252.884,143.062 257,152.5C 258.044,160.023 255.544,166.19 249.5,171C 232.529,175.356 224.696,168.856 226,151.5C 228.022,146.98 231.189,143.647 235.5,141.5 Z"/></g>
<g><path style="opacity:1" fill="#4285df" d="M 198.5,151.5 C 212.824,150.658 219.657,157.325 219,171.5C 214.13,183.186 205.963,186.352 194.5,181C 187.086,174.705 185.586,167.205 190,158.5C 192.441,155.546 195.275,153.213 198.5,151.5 Z"/></g>
<g><path style="opacity:1" fill="#3e83df" d="M 12.5,416.5 C 12.5,415.167 12.5,413.833 12.5,412.5C 22.5824,412.193 32.5824,412.526 42.5,413.5C 44.5688,425.746 51.5688,433.913 63.5,438C 73.121,439.491 82.7877,439.824 92.5,439C 111.894,437.397 124.061,427.231 129,408.5C 131.589,395.277 132.589,381.943 132,368.5C 124.174,377.659 114.674,384.492 103.5,389C 70.0026,401.037 40.836,394.537 16,369.5C 6.15222,353.793 0.652216,336.793 -0.5,318.5C -0.5,308.833 -0.5,299.167 -0.5,289.5C 0.72386,281.17 2.55719,272.837 5,264.5C 18.8641,226.478 46.0308,208.978 86.5,212C 105.394,213.526 120.561,221.693 132,236.5C 132.5,229.508 132.666,222.508 132.5,215.5C 141.833,215.5 151.167,215.5 160.5,215.5C 160.667,274.501 160.5,333.501 160,392.5C 159.195,414.934 150.695,433.767 134.5,449C 107.199,465.824 78.1992,469.157 47.5,459C 27.2214,451.891 15.5548,437.724 12.5,416.5 Z"/></g>
<g><path style="opacity:1" fill="#3e83df" d="M 318.5,211.5 C 364.295,209.129 391.461,230.463 400,275.5C 404.449,304.824 400.449,332.824 388,359.5C 368.625,388.52 341.792,399.353 307.5,392C 294.147,387.646 283.313,379.812 275,368.5C 274.5,399.165 274.333,429.832 274.5,460.5C 265.167,460.5 255.833,460.5 246.5,460.5C 246.5,378.833 246.5,297.167 246.5,215.5C 255.833,215.5 265.167,215.5 274.5,215.5C 274.334,223.507 274.5,231.507 275,239.5C 286.231,224.975 300.731,215.642 318.5,211.5 Z"/></g>
<g><path style="opacity:1" fill="#3f84df" d="M 582.5,281.5 C 582.5,294.833 582.5,308.167 582.5,321.5C 572.471,372.345 541.471,396.512 489.5,394C 468.406,390.881 451.239,381.048 438,364.5C 419.356,334.961 414.689,303.295 424,269.5C 432.526,240.974 451.026,222.474 479.5,214C 534.479,205.466 568.812,227.966 582.5,281.5 Z"/></g>
<g><path style="opacity:1" fill="#3d83df" d="M 188.5,215.5 C 198.5,215.5 208.5,215.5 218.5,215.5C 218.5,273.833 218.5,332.167 218.5,390.5C 208.5,390.5 198.5,390.5 188.5,390.5C 188.5,332.167 188.5,273.833 188.5,215.5 Z"/></g>
<g><path style="opacity:1" fill="#fefefe" d="M 491.5,236.5 C 516.761,233.21 534.928,242.876 546,265.5C 553.106,286.092 554.44,307.092 550,328.5C 538.661,364.92 514.828,377.087 478.5,365C 468.446,358.945 461.279,350.445 457,339.5C 450.819,322.369 448.819,304.702 451,286.5C 453.684,267.279 462.851,252.112 478.5,241C 482.893,239.329 487.226,237.829 491.5,236.5 Z"/></g>
<g><path style="opacity:1" fill="#fdfefe" d="M 71.5,237.5 C 108.013,234.654 128.513,251.321 133,287.5C 135.105,306.869 132.438,325.536 125,343.5C 116.198,358.664 103.031,367.497 85.5,370C 52.5488,372.726 34.3821,357.559 31,324.5C 30.3333,310.833 30.3333,297.167 31,283.5C 34.1746,258.679 47.6746,243.345 71.5,237.5 Z"/></g>
<g><path style="opacity:1" fill="#fefefe" d="M 314.5,237.5 C 329.337,235.577 342.671,239.077 354.5,248C 364.483,259.604 369.983,273.104 371,288.5C 373.176,309.612 369.509,329.612 360,348.5C 346.949,365.742 329.782,371.909 308.5,367C 297.687,363.857 289.521,357.357 284,347.5C 279.755,339.62 277.088,331.286 276,322.5C 275.333,311.167 275.333,299.833 276,288.5C 277.547,269.56 285.714,254.393 300.5,243C 305.07,240.606 309.736,238.773 314.5,237.5 Z"/></g>
<g><path style="opacity:1" fill="#a0c2ef" d="M 42.5,413.5 C 32.5824,412.526 22.5824,412.193 12.5,412.5C 12.5,413.833 12.5,415.167 12.5,416.5C 11.5489,415.081 11.2155,413.415 11.5,411.5C 22.2208,410.858 32.5541,411.525 42.5,413.5 Z"/></g>
</svg>
