<?xml version="1.0" encoding="UTF-8"?>
<!DOCTYPE svg PUBLIC "-//W3C//DTD SVG 1.1//EN" "http://www.w3.org/Graphics/SVG/1.1/DTD/svg11.dtd">
<svg xmlns="http://www.w3.org/2000/svg" version="1.1" width="84px" height="40px" style="shape-rendering:geometricPrecision; text-rendering:geometricPrecision; image-rendering:optimizeQuality; fill-rule:evenodd; clip-rule:evenodd" xmlns:xlink="http://www.w3.org/1999/xlink">
<g><path style="opacity:1" fill="#fbfcfd" d="M -0.5,-0.5 C 5.16667,-0.5 10.8333,-0.5 16.5,-0.5C 16.5,5.16667 16.5,10.8333 16.5,16.5C 13.8067,16.5715 11.1401,16.9049 8.5,17.5C 6.08836,17.5938 4.25503,16.5938 3,14.5C 1.25389,6.07276 4.75389,2.07276 13.5,2.5C 11.1329,0.604766 8.46628,0.104766 5.5,1C 2.68648,2.49363 0.686482,4.6603 -0.5,7.5C -0.5,4.83333 -0.5,2.16667 -0.5,-0.5 Z"/></g>
<g><path style="opacity:1" fill="#5499c5" d="M 16.5,-0.5 C 17.1667,-0.5 17.8333,-0.5 18.5,-0.5C 18.3339,5.17645 18.5006,10.8431 19,16.5C 19.6924,17.0253 20.1924,17.6919 20.5,18.5C 18.2192,19.1847 15.8859,19.3513 13.5,19C 8.52678,23.0444 8.19345,27.5444 12.5,32.5C 15.0335,33.7883 17.5335,33.7883 20,32.5C 20.6877,33.3317 20.521,33.9984 19.5,34.5C 14.8398,36.4813 11.0064,35.4813 8,31.5C 7.24009,27.7745 7.40676,24.1078 8.5,20.5C 6.5,19.6667 4.5,18.8333 2.5,18C 1.39127,16.1239 0.391268,14.2905 -0.5,12.5C -0.5,10.8333 -0.5,9.16667 -0.5,7.5C 0.686482,4.6603 2.68648,2.49363 5.5,1C 8.46628,0.104766 11.1329,0.604766 13.5,2.5C 4.75389,2.07276 1.25389,6.07276 3,14.5C 4.25503,16.5938 6.08836,17.5938 8.5,17.5C 11.1401,16.9049 13.8067,16.5715 16.5,16.5C 16.5,10.8333 16.5,5.16667 16.5,-0.5 Z"/></g>
<g><path style="opacity:1" fill="#f8fafc" d="M 18.5,-0.5 C 40.1667,-0.5 61.8333,-0.5 83.5,-0.5C 83.5,12.8333 83.5,26.1667 83.5,39.5C 55.5,39.5 27.5,39.5 -0.5,39.5C -0.5,30.5 -0.5,21.5 -0.5,12.5C 0.391268,14.2905 1.39127,16.1239 2.5,18C 4.5,18.8333 6.5,19.6667 8.5,20.5C 7.40676,24.1078 7.24009,27.7745 8,31.5C 11.0064,35.4813 14.8398,36.4813 19.5,34.5C 20.521,33.9984 20.6877,33.3317 20,32.5C 17.5335,33.7883 15.0335,33.7883 12.5,32.5C 8.19345,27.5444 8.52678,23.0444 13.5,19C 15.8859,19.3513 18.2192,19.1847 20.5,18.5C 20.1924,17.6919 19.6924,17.0253 19,16.5C 18.5006,10.8431 18.3339,5.17645 18.5,-0.5 Z"/></g>
<g><path style="opacity:1" fill="#619fc9" d="M 24.5,0.5 C 25.5,0.5 26.5,0.5 27.5,0.5C 27.5,1.5 27.5,2.5 27.5,3.5C 26.5,3.5 25.5,3.5 24.5,3.5C 24.5,2.5 24.5,1.5 24.5,0.5 Z"/></g>
<g><path style="opacity:1" fill="#66a2cb" d="M 46.5,0.5 C 47.5,0.5 48.5,0.5 49.5,0.5C 49.5,1.5 49.5,2.5 49.5,3.5C 48.5,3.5 47.5,3.5 46.5,3.5C 46.5,2.5 46.5,1.5 46.5,0.5 Z"/></g>
<g><path style="opacity:1" fill="#579ac6" d="M 57.5,0.5 C 60.4822,0.104447 63.1489,0.771113 65.5,2.5C 55.9459,2.29296 52.7793,6.62629 56,15.5C 59.7193,17.8068 63.7193,18.1402 68,16.5C 79.3822,17.931 82.2155,23.5977 76.5,33.5C 72.6746,35.1453 68.6746,35.812 64.5,35.5C 64.5,30.1667 64.5,24.8333 64.5,19.5C 53.8847,20.6485 50.0513,15.9819 53,5.5C 54.1932,3.50287 55.6932,1.83621 57.5,0.5 Z"/></g>
<g><path style="opacity:1" fill="#4792c1" d="M 24.5,6.5 C 26.3092,14.7755 27.1425,23.4421 27,32.5C 28.7844,33.6675 28.7844,34.6675 27,35.5C 26.0546,35.0946 25.3879,34.428 25,33.5C 24.5002,24.5062 24.3336,15.5062 24.5,6.5 Z"/></g>
<g><path style="opacity:1" fill="#5e9ec8" d="M 31.5,6.5 C 34.5184,6.33537 37.5184,6.50204 40.5,7C 41,7.5 41.5,8 42,8.5C 42.4988,12.4862 42.6655,16.4862 42.5,20.5C 41.5,20.5 40.5,20.5 39.5,20.5C 39.6653,16.8183 39.4986,13.1516 39,9.5C 37.3005,8.59391 35.4672,8.26057 33.5,8.5C 33.8242,12.5546 33.4909,16.5546 32.5,20.5C 31.5067,15.8804 31.1734,11.2137 31.5,6.5 Z"/></g>
<g><path style="opacity:1" fill="#6da8ce" d="M 46.5,5.5 C 47.5,5.5 48.5,5.5 49.5,5.5C 49.5,10.5 49.5,15.5 49.5,20.5C 48.5,20.5 47.5,20.5 46.5,20.5C 46.5,15.5 46.5,10.5 46.5,5.5 Z"/></g>
<g><path style="opacity:1" fill="#f5f8fb" d="M 66.5,19.5 C 76.3105,19.1392 78.9772,23.3059 74.5,32C 71.9865,33.2525 69.3198,33.7525 66.5,33.5C 66.5,28.8333 66.5,24.1667 66.5,19.5 Z"/></g>
<g><path style="opacity:1" fill="#63a0ca" d="M 46.5,21.5 C 47.5,21.5 48.5,21.5 49.5,21.5C 49.3347,25.1817 49.5014,28.8484 50,32.5C 51.6995,33.4061 53.5328,33.7394 55.5,33.5C 55.5,29.5 55.5,25.5 55.5,21.5C 56.5,21.5 57.5,21.5 58.5,21.5C 58.5,26.1667 58.5,30.8333 58.5,35.5C 55.4816,35.6646 52.4816,35.498 49.5,35C 49,34.5 48.5,34 48,33.5C 46.6463,29.6372 46.1463,25.6372 46.5,21.5 Z"/></g>
<g><path style="opacity:1" fill="#1f1f1f" d="M 34.5,22.5 C 37.9278,22.5465 40.9278,23.7132 43.5,26C 45.9938,28.4231 45.9938,30.7564 43.5,33C 40.8333,33.6667 38.1667,33.6667 35.5,33C 37.8333,32.6667 40.1667,32.3333 42.5,32C 43.0219,31.4387 43.3552,30.772 43.5,30C 41.473,27.8132 39.1396,25.9799 36.5,24.5C 34.5,26.1667 32.5,27.8333 30.5,29.5C 31.3128,30.8139 32.3128,31.9805 33.5,33C 32.5,33.6667 31.5,33.6667 30.5,33C 29.4238,31.2739 29.2571,29.4406 30,27.5C 31.9664,26.2197 33.4664,24.553 34.5,22.5 Z"/></g>
</svg>
