<?xml version="1.0" encoding="UTF-8"?>
<!DOCTYPE svg PUBLIC "-//W3C//DTD SVG 1.1//EN" "http://www.w3.org/Graphics/SVG/1.1/DTD/svg11.dtd">
<svg xmlns="http://www.w3.org/2000/svg" version="1.1" width="139px" height="24px" style="shape-rendering:geometricPrecision; text-rendering:geometricPrecision; image-rendering:optimizeQuality; fill-rule:evenodd; clip-rule:evenodd" xmlns:xlink="http://www.w3.org/1999/xlink">
<g><path style="opacity:1" fill="#ebeeec" d="M -0.5,-0.5 C 45.8333,-0.5 92.1667,-0.5 138.5,-0.5C 138.5,0.166667 138.5,0.833333 138.5,1.5C 134.629,1.18503 130.962,1.51836 127.5,2.5C 125.565,1.85048 123.565,1.51715 121.5,1.5C 117.629,1.18503 113.962,1.51836 110.5,2.5C 107.609,1.59748 104.609,1.26414 101.5,1.5C 100.167,1.5 98.8333,1.5 97.5,1.5C 96.7611,1.36899 96.0944,1.53566 95.5,2C 93.6596,4.66874 91.6596,7.16874 89.5,9.5C 87.7684,7.71734 86.2684,5.71734 85,3.5C 84.1841,2.17723 83.0174,1.51056 81.5,1.5C 80.5,1.5 79.5,1.5 78.5,1.5C 74.5,1.5 70.5,1.5 66.5,1.5C 65.5,1.5 64.5,1.5 63.5,1.5C 59.1667,1.5 54.8333,1.5 50.5,1.5C 48.2646,1.20528 46.2646,1.53862 44.5,2.5C 42.283,1.63137 39.9496,1.29803 37.5,1.5C 34.8333,1.5 32.1667,1.5 29.5,1.5C 28.8333,1.5 28.1667,1.5 27.5,1.5C 24.5,1.5 21.5,1.5 18.5,1.5C 18.5,5.5 18.5,9.5 18.5,13.5C 18.1307,9.23246 17.1307,5.23246 15.5,1.5C 14.2223,1.78219 13.2223,2.44886 12.5,3.5C 10.9522,2.20574 8.95225,1.53907 6.5,1.5C 4.04775,1.53907 2.04775,2.20574 0.5,3.5C 0.166667,3.5 -0.166667,3.5 -0.5,3.5C -0.5,2.16667 -0.5,0.833333 -0.5,-0.5 Z"/></g>
<g><path style="opacity:1" fill="#fcfdfd" d="M 15.5,1.5 C 14.8983,7.02356 15.8983,12.1902 18.5,17C 21.9926,18.0037 25.1592,17.5037 28,15.5C 29.3092,10.9342 29.8092,6.2675 29.5,1.5C 32.1667,1.5 34.8333,1.5 37.5,1.5C 31.3434,6.29254 31.01,11.4592 36.5,17C 46.496,19.0051 50.3293,15.1718 48,5.5C 46.9609,4.2899 45.7942,3.2899 44.5,2.5C 46.2646,1.53862 48.2646,1.20528 50.5,1.5C 51.5521,3.25605 53.2188,3.92271 55.5,3.5C 56.1667,22.1667 56.8333,22.1667 57.5,3.5C 60.0821,3.97461 62.0821,3.30794 63.5,1.5C 64.5,1.5 65.5,1.5 66.5,1.5C 66.5,6.83333 66.5,12.1667 66.5,17.5C 70.5138,17.6655 74.5138,17.4988 78.5,17C 75.1832,16.5017 71.8499,16.335 68.5,16.5C 68.5,14.5 68.5,12.5 68.5,10.5C 80.5,9.83333 80.5,9.16667 68.5,8.5C 68.5,6.83333 68.5,5.16667 68.5,3.5C 72.3293,4.06896 75.6627,3.40229 78.5,1.5C 79.5,1.5 80.5,1.5 81.5,1.5C 81.1718,6.8746 81.5052,12.2079 82.5,17.5C 83.3265,13.5408 83.8265,9.54078 84,5.5C 85.6733,8.00112 87.5067,10.3345 89.5,12.5C 91.4933,10.3345 93.3267,8.00112 95,5.5C 95.1735,9.54078 95.6735,13.5408 96.5,17.5C 97.4948,12.2079 97.8282,6.8746 97.5,1.5C 98.8333,1.5 100.167,1.5 101.5,1.5C 101.172,6.8746 101.505,12.2079 102.5,17.5C 103.452,15.9547 103.785,14.288 103.5,12.5C 107.192,13.0288 110.358,12.0288 113,9.5C 114.087,6.38615 113.254,4.05281 110.5,2.5C 113.962,1.51836 117.629,1.18503 121.5,1.5C 115.368,6.26731 115.034,11.434 120.5,17C 129.116,18.7172 132.949,15.2172 132,6.5C 130.629,4.95862 129.129,3.62529 127.5,2.5C 130.962,1.51836 134.629,1.18503 138.5,1.5C 138.5,8.83333 138.5,16.1667 138.5,23.5C 92.1667,23.5 45.8333,23.5 -0.5,23.5C -0.5,16.8333 -0.5,10.1667 -0.5,3.5C -0.166667,3.5 0.166667,3.5 0.5,3.5C 2.16667,3.5 3.83333,3.5 5.5,3.5C 6.16667,22.1667 6.83333,22.1667 7.5,3.5C 9.16667,3.5 10.8333,3.5 12.5,3.5C 13.2223,2.44886 14.2223,1.78219 15.5,1.5 Z"/></g>
<g><path style="opacity:1" fill="#77a0b9" d="M 121.5,1.5 C 123.565,1.51715 125.565,1.85048 127.5,2.5C 129.129,3.62529 130.629,4.95862 132,6.5C 132.949,15.2172 129.116,18.7172 120.5,17C 115.034,11.434 115.368,6.26731 121.5,1.5 Z"/></g>
<g><path style="opacity:1" fill="#68d085" d="M 12.5,3.5 C 10.8333,3.5 9.16667,3.5 7.5,3.5C 6.83333,22.1667 6.16667,22.1667 5.5,3.5C 3.83333,3.5 2.16667,3.5 0.5,3.5C 2.04775,2.20574 4.04775,1.53907 6.5,1.5C 8.95225,1.53907 10.9522,2.20574 12.5,3.5 Z"/></g>
<g><path style="opacity:1" fill="#74d38d" d="M 15.5,1.5 C 17.1307,5.23246 18.1307,9.23246 18.5,13.5C 21.2008,17.4671 24.0342,17.4671 27,13.5C 27.4988,9.51383 27.6655,5.51383 27.5,1.5C 28.1667,1.5 28.8333,1.5 29.5,1.5C 29.8092,6.2675 29.3092,10.9342 28,15.5C 25.1592,17.5037 21.9926,18.0037 18.5,17C 15.8983,12.1902 14.8983,7.02356 15.5,1.5 Z"/></g>
<g><path style="opacity:1" fill="#fcfefc" d="M 27.5,1.5 C 27.6655,5.51383 27.4988,9.51383 27,13.5C 24.0342,17.4671 21.2008,17.4671 18.5,13.5C 18.5,9.5 18.5,5.5 18.5,1.5C 21.5,1.5 24.5,1.5 27.5,1.5 Z"/></g>
<g><path style="opacity:1" fill="#68d083" d="M 37.5,1.5 C 39.9496,1.29803 42.283,1.63137 44.5,2.5C 45.7942,3.2899 46.9609,4.2899 48,5.5C 50.3293,15.1718 46.496,19.0051 36.5,17C 31.01,11.4592 31.3434,6.29254 37.5,1.5 Z"/></g>
<g><path style="opacity:1" fill="#88acc1" d="M 50.5,1.5 C 54.8333,1.5 59.1667,1.5 63.5,1.5C 62.0821,3.30794 60.0821,3.97461 57.5,3.5C 56.8333,22.1667 56.1667,22.1667 55.5,3.5C 53.2188,3.92271 51.5521,3.25605 50.5,1.5 Z"/></g>
<g><path style="opacity:1" fill="#7ca4bc" d="M 66.5,1.5 C 70.5,1.5 74.5,1.5 78.5,1.5C 75.6627,3.40229 72.3293,4.06896 68.5,3.5C 68.5,5.16667 68.5,6.83333 68.5,8.5C 80.5,9.16667 80.5,9.83333 68.5,10.5C 68.5,12.5 68.5,14.5 68.5,16.5C 71.8499,16.335 75.1832,16.5017 78.5,17C 74.5138,17.4988 70.5138,17.6655 66.5,17.5C 66.5,12.1667 66.5,6.83333 66.5,1.5 Z"/></g>
<g><path style="opacity:1" fill="#81a7be" d="M 101.5,1.5 C 104.609,1.26414 107.609,1.59748 110.5,2.5C 113.254,4.05281 114.087,6.38615 113,9.5C 110.358,12.0288 107.192,13.0288 103.5,12.5C 103.785,14.288 103.452,15.9547 102.5,17.5C 101.505,12.2079 101.172,6.8746 101.5,1.5 Z"/></g>
<g><path style="opacity:1" fill="#fbfcfd" d="M 103.5,3.5 C 105.857,3.33669 108.19,3.50335 110.5,4C 111.805,9.52445 109.472,11.6911 103.5,10.5C 103.5,8.16667 103.5,5.83333 103.5,3.5 Z"/></g>
<g><path style="opacity:1" fill="#81a7be" d="M 81.5,1.5 C 83.0174,1.51056 84.1841,2.17723 85,3.5C 86.2684,5.71734 87.7684,7.71734 89.5,9.5C 91.6596,7.16874 93.6596,4.66874 95.5,2C 96.0944,1.53566 96.7611,1.36899 97.5,1.5C 97.8282,6.8746 97.4948,12.2079 96.5,17.5C 95.6735,13.5408 95.1735,9.54078 95,5.5C 93.3267,8.00112 91.4933,10.3345 89.5,12.5C 87.5067,10.3345 85.6733,8.00112 84,5.5C 83.8265,9.54078 83.3265,13.5408 82.5,17.5C 81.5052,12.2079 81.1718,6.8746 81.5,1.5 Z"/></g>
</svg>
