<?xml version="1.0" encoding="UTF-8"?>
<!DOCTYPE svg PUBLIC "-//W3C//DTD SVG 1.1//EN" "http://www.w3.org/Graphics/SVG/1.1/DTD/svg11.dtd">
<svg xmlns="http://www.w3.org/2000/svg" version="1.1" width="103px" height="32px" style="shape-rendering:geometricPrecision; text-rendering:geometricPrecision; image-rendering:optimizeQuality; fill-rule:evenodd; clip-rule:evenodd" xmlns:xlink="http://www.w3.org/1999/xlink">
<g><path style="opacity:1" fill="#f9fbfb" d="M 21.5,-0.5 C 48.5,-0.5 75.5,-0.5 102.5,-0.5C 102.5,10.1667 102.5,20.8333 102.5,31.5C 68.1667,31.5 33.8333,31.5 -0.5,31.5C -0.5,29.8333 -0.5,28.1667 -0.5,26.5C 6.07794,27.4601 12.7446,27.7934 19.5,27.5C 22.0193,27.1523 23.8526,25.8189 25,23.5C 25.4986,19.8484 25.6653,16.1817 25.5,12.5C 22.4281,12.8174 19.4281,12.4841 16.5,11.5C 13.6918,3.54918 11.6918,3.88251 10.5,12.5C 9.69345,17.3723 8.69345,17.539 7.5,13C 4.85397,12.5026 2.1873,12.3359 -0.5,12.5C -0.5,9.5 -0.5,6.5 -0.5,3.5C 0.28913,3.21719 0.955796,2.71719 1.5,2C 6.1548,1.50085 10.8215,1.33418 15.5,1.5C 18.0444,1.10433 20.2111,1.77099 22,3.5C 23.6521,12.8338 24.6521,12.8338 25,3.5C 24.3103,1.64977 23.1436,0.316435 21.5,-0.5 Z"/></g>
<g><path style="opacity:1" fill="#17b9c1" d="M -0.5,-0.5 C 4.5,-0.5 9.5,-0.5 14.5,-0.5C 14.8333,0.166667 15.1667,0.833333 15.5,1.5C 10.8215,1.33418 6.1548,1.50085 1.5,2C 0.955796,2.71719 0.28913,3.21719 -0.5,3.5C -0.5,2.16667 -0.5,0.833333 -0.5,-0.5 Z"/></g>
<g><path style="opacity:1" fill="#46bade" d="M 14.5,-0.5 C 16.8333,-0.5 19.1667,-0.5 21.5,-0.5C 23.1436,0.316435 24.3103,1.64977 25,3.5C 24.6521,12.8338 23.6521,12.8338 22,3.5C 20.2111,1.77099 18.0444,1.10433 15.5,1.5C 15.1667,0.833333 14.8333,0.166667 14.5,-0.5 Z"/></g>
<g><path style="opacity:1" fill="#334e5c" d="M 33.5,5.5 C 34.9778,5.23798 36.3112,5.57131 37.5,6.5C 36.675,7.38568 35.675,7.71901 34.5,7.5C 34.4802,9.14297 35.1468,10.4763 36.5,11.5C 35.675,12.3857 34.675,12.719 33.5,12.5C 33.8174,15.5719 33.4841,18.5719 32.5,21.5C 30.222,15.7272 30.5553,10.3938 33.5,5.5 Z"/></g>
<g><path style="opacity:1" fill="#3ec5c3" d="M 19.5,27.5 C 19.5,26.8333 19.5,26.1667 19.5,25.5C 20.4584,25.0472 21.2917,24.3805 22,23.5C 22.498,20.5184 22.6646,17.5184 22.5,14.5C 19.8333,14.5 17.1667,14.5 14.5,14.5C 14.719,13.325 14.3857,12.325 13.5,11.5C 12.8302,13.2914 12.1635,14.9581 11.5,16.5C 11.7678,14.901 11.4345,13.5676 10.5,12.5C 11.6918,3.88251 13.6918,3.54918 16.5,11.5C 19.4281,12.4841 22.4281,12.8174 25.5,12.5C 25.6653,16.1817 25.4986,19.8484 25,23.5C 23.8526,25.8189 22.0193,27.1523 19.5,27.5 Z"/></g>
<g><path style="opacity:1" fill="#224150" d="M 52.5,10.5 C 56.0224,10.2718 58.3557,11.7718 59.5,15C 59.3552,15.772 59.0219,16.4387 58.5,17C 56.1667,17.3333 53.8333,17.6667 51.5,18C 52.1667,18.6667 52.8333,19.3333 53.5,20C 55.4242,20.1792 57.0909,20.3459 58.5,20.5C 51.542,23.0374 48.7087,20.7041 50,13.5C 51.045,12.6266 51.8783,11.6266 52.5,10.5 Z"/></g>
<g><path style="opacity:1" fill="#264452" d="M 63.5,10.5 C 65.8333,10.5 68.1667,10.5 70.5,10.5C 70.6658,15.1785 70.4992,19.8452 70,24.5C 67.7731,27.4579 64.9397,28.1246 61.5,26.5C 63.4233,25.6922 65.4233,25.1922 67.5,25C 69.331,21.28 68.4976,20.1133 65,21.5C 60.7941,20.4718 59.4608,17.8052 61,13.5C 62.045,12.6266 62.8783,11.6266 63.5,10.5 Z"/></g>
<g><path style="opacity:1" fill="#1ecda4" d="M -0.5,12.5 C 2.1873,12.3359 4.85397,12.5026 7.5,13C 8.69345,17.539 9.69345,17.3723 10.5,12.5C 11.4345,13.5676 11.7678,14.901 11.5,16.5C 11.2287,18.3117 10.562,19.9783 9.5,21.5C 7.67258,19.5128 6.67258,17.1795 6.5,14.5C 4.16667,14.5 1.83333,14.5 -0.5,14.5C -0.5,13.8333 -0.5,13.1667 -0.5,12.5 Z"/></g>
<g><path style="opacity:1" fill="#f7fdfb" d="M 19.5,25.5 C 13.4908,25.6662 7.49076,25.4995 1.5,25C 0.934056,24.0053 0.267389,23.172 -0.5,22.5C -0.5,19.8333 -0.5,17.1667 -0.5,14.5C 1.83333,14.5 4.16667,14.5 6.5,14.5C 6.67258,17.1795 7.67258,19.5128 9.5,21.5C 10.562,19.9783 11.2287,18.3117 11.5,16.5C 12.1635,14.9581 12.8302,13.2914 13.5,11.5C 14.3857,12.325 14.719,13.325 14.5,14.5C 17.1667,14.5 19.8333,14.5 22.5,14.5C 22.6646,17.5184 22.498,20.5184 22,23.5C 21.2917,24.3805 20.4584,25.0472 19.5,25.5 Z"/></g>
<g><path style="opacity:1" fill="#e8ebec" d="M 52.5,12.5 C 54.6648,12.1159 56.3315,12.7826 57.5,14.5C 55.5,15.8333 53.5,15.8333 51.5,14.5C 51.8627,13.8165 52.1961,13.1499 52.5,12.5 Z"/></g>
<g><path style="opacity:1" fill="#f1f3f4" d="M 64.5,12.5 C 65.8333,12.5 67.1667,12.5 68.5,12.5C 68.5,14.8333 68.5,17.1667 68.5,19.5C 66.6693,20.0522 65.0026,20.0522 63.5,19.5C 62.1544,16.9004 62.4877,14.5671 64.5,12.5 Z"/></g>
<g><path style="opacity:1" fill="#284554" d="M 82.5,10.5 C 83.3764,10.3691 84.0431,10.7025 84.5,11.5C 85.6343,14.0698 86.4677,16.7365 87,19.5C 87.7943,16.5285 88.461,13.5285 89,10.5C 90.2579,12.7644 91.4246,15.0977 92.5,17.5C 93.5765,15.013 94.9098,12.6797 96.5,10.5C 96.8333,11 97.1667,11.5 97.5,12C 95.9765,14.8995 94.6431,17.8995 93.5,21C 91.193,21.2713 90.0264,20.1047 90,17.5C 89.5495,20.1059 88.0495,21.4392 85.5,21.5C 84.7033,17.7768 83.7033,14.1101 82.5,10.5 Z"/></g>
<g><path style="opacity:1" fill="#1c3c4b" d="M 74.5,10.5 C 82.3017,10.7874 84.3017,14.2874 80.5,21C 73.4949,22.3236 70.9949,19.4902 73,12.5C 73.7172,11.9558 74.2172,11.2891 74.5,10.5 Z"/></g>
<g><path style="opacity:1" fill="#eaedee" d="M 75.5,12.5 C 80.0685,12.0826 81.5685,14.0826 80,18.5C 78.084,21.033 76.084,21.033 74,18.5C 73.2516,16.1599 73.7516,14.1599 75.5,12.5 Z"/></g>
<g><path style="opacity:1" fill="#2a4755" d="M 41.5,10.5 C 46.3731,10.373 48.3731,12.7064 47.5,17.5C 45.076,17.1924 42.7427,17.5258 40.5,18.5C 42.0993,20.7288 44.0993,21.0622 46.5,19.5C 47.6039,20.6313 47.2705,21.4646 45.5,22C 39.4369,22.4223 37.2703,19.589 39,13.5C 39.6979,12.3094 40.5313,11.3094 41.5,10.5 Z"/></g>
<g><path style="opacity:1" fill="#e8eced" d="M 41.5,12.5 C 43.7159,12.2746 45.3826,13.1079 46.5,15C 44.4213,15.8077 42.4213,15.641 40.5,14.5C 40.8627,13.8165 41.1961,13.1499 41.5,12.5 Z"/></g>
<g><path style="opacity:1" fill="#11d293" d="M -0.5,22.5 C 0.267389,23.172 0.934056,24.0053 1.5,25C 7.49076,25.4995 13.4908,25.6662 19.5,25.5C 19.5,26.1667 19.5,26.8333 19.5,27.5C 12.7446,27.7934 6.07794,27.4601 -0.5,26.5C -0.5,25.1667 -0.5,23.8333 -0.5,22.5 Z"/></g>
</svg>
