<?xml version="1.0" encoding="UTF-8"?>
<!DOCTYPE svg PUBLIC "-//W3C//DTD SVG 1.1//EN" "http://www.w3.org/Graphics/SVG/1.1/DTD/svg11.dtd">
<svg xmlns="http://www.w3.org/2000/svg" version="1.1" width="96px" height="30px" style="shape-rendering:geometricPrecision; text-rendering:geometricPrecision; image-rendering:optimizeQuality; fill-rule:evenodd; clip-rule:evenodd" xmlns:xlink="http://www.w3.org/1999/xlink">
<g><path style="opacity:1" fill="#e4ebe9" d="M -0.5,-0.5 C 31.5,-0.5 63.5,-0.5 95.5,-0.5C 95.5,-0.166667 95.5,0.166667 95.5,0.5C 68.1667,0.5 40.8333,0.5 13.5,0.5C 13.5,2.83333 13.5,5.16667 13.5,7.5C 10.8414,9.16353 8.17475,10.8302 5.5,12.5C 4.50838,12.6716 3.84171,12.3382 3.5,11.5C 6.11355,10.1932 8.78022,8.85989 11.5,7.5C 12.4742,5.25731 12.8076,2.92397 12.5,0.5C 10.8561,0.286495 9.35613,0.619828 8,1.5C 7.50454,3.4727 7.33788,5.4727 7.5,7.5C 4.77051,6.46956 2.10384,6.46956 -0.5,7.5C -0.5,4.83333 -0.5,2.16667 -0.5,-0.5 Z"/></g>
<g><path style="opacity:1" fill="#28c7ab" d="M 3.5,11.5 C 2.16667,11.1667 0.833333,10.8333 -0.5,10.5C -0.5,9.5 -0.5,8.5 -0.5,7.5C 2.10384,6.46956 4.77051,6.46956 7.5,7.5C 7.33788,5.4727 7.50454,3.4727 8,1.5C 9.35613,0.619828 10.8561,0.286495 12.5,0.5C 12.8076,2.92397 12.4742,5.25731 11.5,7.5C 8.78022,8.85989 6.11355,10.1932 3.5,11.5 Z"/></g>
<g><path style="opacity:1" fill="#fafdfd" d="M 95.5,0.5 C 95.5,10.1667 95.5,19.8333 95.5,29.5C 63.5,29.5 31.5,29.5 -0.5,29.5C -0.5,23.1667 -0.5,16.8333 -0.5,10.5C 0.833333,10.8333 2.16667,11.1667 3.5,11.5C 3.84171,12.3382 4.50838,12.6716 5.5,12.5C 4.63215,14.4021 3.63215,16.2355 2.5,18C 5.76596,22.8068 8.26596,22.3068 10,16.5C 11.129,14.8588 12.629,13.8588 14.5,13.5C 16.6168,11.937 18.9501,10.6036 21.5,9.5C 19.5136,6.39712 16.8469,5.73045 13.5,7.5C 13.5,5.16667 13.5,2.83333 13.5,0.5C 40.8333,0.5 68.1667,0.5 95.5,0.5 Z"/></g>
<g><path style="opacity:1" fill="#00c3a4" d="M 29.5,2.5 C 31.337,2.63945 31.6704,3.30612 30.5,4.5C 29.7025,4.04311 29.3691,3.37644 29.5,2.5 Z"/></g>
<g><path style="opacity:1" fill="#30c8ad" d="M 78.5,2.5 C 80.4364,6.71474 81.1031,11.3814 80.5,16.5C 73.1607,18.8763 70.3274,16.2096 72,8.5C 73.7889,6.77099 75.9556,6.10433 78.5,6.5C 78.5,5.16667 78.5,3.83333 78.5,2.5 Z"/></g>
<g><path style="opacity:1" fill="#27c7ab" d="M 14.5,13.5 C 12.629,13.8588 11.129,14.8588 10,16.5C 8.26596,22.3068 5.76596,22.8068 2.5,18C 3.63215,16.2355 4.63215,14.4021 5.5,12.5C 8.17475,10.8302 10.8414,9.16353 13.5,7.5C 16.8469,5.73045 19.5136,6.39712 21.5,9.5C 18.9501,10.6036 16.6168,11.937 14.5,13.5 Z"/></g>
<g><path style="opacity:1" fill="#2cc7ac" d="M 29.5,5.5 C 30.8001,7.22299 31.4668,9.38965 31.5,12C 31.3333,14.1667 31.1667,16.3333 31,18.5C 29.8145,20.5593 28.6479,20.726 27.5,19C 29.2986,14.7048 29.9652,10.2048 29.5,5.5 Z"/></g>
<g><path style="opacity:1" fill="#48cfb6" d="M 34.5,5.5 C 41.9971,5.30347 44.6638,8.97014 42.5,16.5C 40.1305,16.8511 37.7972,17.0178 35.5,17C 32.1599,12.2781 33.4932,9.77805 39.5,9.5C 37.9547,8.54811 36.288,8.21478 34.5,8.5C 34.5,7.5 34.5,6.5 34.5,5.5 Z"/></g>
<g><path style="opacity:1" fill="#3bcbb1" d="M 54.5,5.5 C 56.9115,5.13673 58.4115,6.13673 59,8.5C 59.4974,11.146 59.6641,13.8127 59.5,16.5C 58.5,16.5 57.5,16.5 56.5,16.5C 56.5,13.8333 56.5,11.1667 56.5,8.5C 55.1779,8.33003 54.0113,8.66337 53,9.5C 51.6299,18.5423 50.7965,18.209 50.5,8.5C 49.1779,8.33003 48.0113,8.66337 47,9.5C 46.5034,11.8098 46.3367,14.1432 46.5,16.5C 45.5,16.5 44.5,16.5 43.5,16.5C 43.5,13.1667 43.5,9.83333 43.5,6.5C 46.5788,6.26006 49.5788,6.59339 52.5,7.5C 53.5223,7.14451 54.189,6.47784 54.5,5.5 Z"/></g>
<g><path style="opacity:1" fill="#46ceb6" d="M 64.5,5.5 C 68.8004,5.81526 70.467,8.14859 69.5,12.5C 61.6019,12.8864 61.6019,13.8864 69.5,15.5C 66.4542,18.2661 63.6209,17.9328 61,14.5C 59.6649,10.3919 60.8316,7.3919 64.5,5.5 Z"/></g>
<g><path style="opacity:1" fill="#41cdb4" d="M 83.5,5.5 C 85.5914,5.31845 87.5914,5.65178 89.5,6.5C 90.487,9.76829 90.8204,13.1016 90.5,16.5C 85.0674,18.8792 82.5674,17.2126 83,11.5C 84.8254,10.8971 86.6587,10.2304 88.5,9.5C 86.9547,8.54811 85.288,8.21478 83.5,8.5C 83.5,7.5 83.5,6.5 83.5,5.5 Z"/></g>
<g><path style="opacity:1" fill="#effbf9" d="M 63.5,8.5 C 65.1033,8.31181 66.4366,8.81181 67.5,10C 65.5372,10.8442 64.2039,10.3442 63.5,8.5 Z"/></g>
<g><path style="opacity:1" fill="#f2fcfa" d="M 74.5,8.5 C 75.8333,8.5 77.1667,8.5 78.5,8.5C 78.5,10.5 78.5,12.5 78.5,14.5C 77.1667,14.5 75.8333,14.5 74.5,14.5C 74.5,12.5 74.5,10.5 74.5,8.5 Z"/></g>
<g><path style="opacity:1" fill="#fafdfd" d="M 36.5,12.5 C 37.675,12.281 38.675,12.6143 39.5,13.5C 37.9483,14.7979 36.9483,14.4646 36.5,12.5 Z"/></g>
<g><path style="opacity:1" fill="#fafdfd" d="M 85.5,12.5 C 86.675,12.281 87.675,12.6143 88.5,13.5C 86.9483,14.7979 85.9483,14.4646 85.5,12.5 Z"/></g>
<g><path style="opacity:1" fill="#3acbb1" d="M 14.5,13.5 C 19.0903,16.2199 19.2569,18.8865 15,21.5C 13.647,20.3147 12.4803,18.9814 11.5,17.5C 12.5244,16.1482 13.5244,14.8149 14.5,13.5 Z"/></g>
</svg>
