<?xml version="1.0" encoding="UTF-8"?>
<!DOCTYPE svg PUBLIC "-//W3C//DTD SVG 1.1//EN" "http://www.w3.org/Graphics/SVG/1.1/DTD/svg11.dtd">
<svg xmlns="http://www.w3.org/2000/svg" version="1.1" width="28px" height="31px" style="shape-rendering:geometricPrecision; text-rendering:geometricPrecision; image-rendering:optimizeQuality; fill-rule:evenodd; clip-rule:evenodd" xmlns:xlink="http://www.w3.org/1999/xlink">
<g><path style="opacity:1" fill="#1d2835" d="M -0.5,-0.5 C 8.83333,-0.5 18.1667,-0.5 27.5,-0.5C 27.5,9.83333 27.5,20.1667 27.5,30.5C 18.1667,30.5 8.83333,30.5 -0.5,30.5C -0.5,20.1667 -0.5,9.83333 -0.5,-0.5 Z"/></g>
<g><path style="opacity:1" fill="#d7d9dc" d="M 7.5,3.5 C 11.226,3.17744 14.8927,3.51078 18.5,4.5C 16.6667,4.83333 14.8333,5.16667 13,5.5C 10.7047,5.4535 8.87135,4.78683 7.5,3.5 Z"/></g>
<g><path style="opacity:1" fill="#d4d6d9" d="M 4.5,8.5 C 9.98458,7.3483 15.6513,7.18163 21.5,8C 20.5268,13.4066 20.1934,18.9066 20.5,24.5C 18.8333,24.5 17.1667,24.5 15.5,24.5C 15.5,22.8333 15.5,21.1667 15.5,19.5C 13.8333,19.5 12.1667,19.5 10.5,19.5C 10.5,21.1667 10.5,22.8333 10.5,24.5C 8.83333,24.5 7.16667,24.5 5.5,24.5C 5.82141,18.9738 5.48808,13.6405 4.5,8.5 Z"/></g>
</svg>
