<?xml version="1.0" encoding="UTF-8"?>
<!DOCTYPE svg PUBLIC "-//W3C//DTD SVG 1.1//EN" "http://www.w3.org/Graphics/SVG/1.1/DTD/svg11.dtd">
<svg xmlns="http://www.w3.org/2000/svg" version="1.1" width="25px" height="26px" style="shape-rendering:geometricPrecision; text-rendering:geometricPrecision; image-rendering:optimizeQuality; fill-rule:evenodd; clip-rule:evenodd" xmlns:xlink="http://www.w3.org/1999/xlink">
<g><path style="opacity:1" fill="#4285df" d="M -0.5,-0.5 C 7.83333,-0.5 16.1667,-0.5 24.5,-0.5C 24.5,8.16667 24.5,16.8333 24.5,25.5C 16.1667,25.5 7.83333,25.5 -0.5,25.5C -0.5,16.8333 -0.5,8.16667 -0.5,-0.5 Z"/></g>
<g><path style="opacity:1" fill="#f7fafd" d="M 20.5,19.5 C 17.7425,20.8182 14.5758,21.4848 11,21.5C 7.64817,21.4982 4.4815,21.1649 1.5,20.5C 1.41423,19.5041 1.74756,18.6708 2.5,18C 5.24926,17.6362 7.24926,16.3029 8.5,14C 6.71064,10.435 6.04398,6.60172 6.5,2.5C 10.2571,2.28637 10.9238,3.28637 8.5,5.5C 10.3482,8.18997 12.0149,8.02331 13.5,5C 12.6919,4.69238 12.0253,4.19238 11.5,3.5C 12.6888,2.57131 14.0222,2.23798 15.5,2.5C 15.9225,6.71208 15.2558,10.7121 13.5,14.5C 15.7663,16.3504 18.0997,18.0171 20.5,19.5 Z"/></g>
<g><path style="opacity:1" fill="#97bced" d="M 20.5,19.5 C 21.404,20.209 21.7373,21.209 21.5,22.5C 14.4684,22.8303 7.46843,22.497 0.5,21.5C 0.62358,20.8933 0.956913,20.56 1.5,20.5C 4.4815,21.1649 7.64817,21.4982 11,21.5C 14.5758,21.4848 17.7425,20.8182 20.5,19.5 Z"/></g>
</svg>
